<svg width="320" height="320" viewBox="0 0 320 320" fill="none" xmlns="http://www.w3.org/2000/svg">
<path d="M153.807 0L77.5209 320H0L39.8502 152.889C39.8789 152.836 39.8917 152.771 39.8866 152.706L76.2858 0H153.807Z" fill="url(#paint0_linear)"/>
<path d="M242.807 0L166.521 320H89.0001L128.051 156.188L165.286 0H242.807Z" fill="url(#paint1_linear)"/>
<path d="M320 320H242.515L228.748 262.305V262.259L209.967 183.482L248.727 20.9409L320 320Z" fill="url(#paint2_linear)"/>
<g style="mix-blend-mode:screen" opacity="0.4">
<g style="mix-blend-mode:screen" opacity="0.4">
<path d="M143.962 9.41177L9.84436 310.588L81.6621 9.41177H143.962Z" fill="white"/>
</g>
</g>
<g style="mix-blend-mode:screen" opacity="0.4">
<g style="mix-blend-mode:screen" opacity="0.4">
<path d="M232.962 9.41177L98.8446 310.588L170.662 9.41177H232.962Z" fill="white"/>
</g>
</g>
<g style="mix-blend-mode:multiply" opacity="0.3">
<g style="mix-blend-mode:multiply" opacity="0.3">
<path d="M248.728 20.9409L228.748 262.282L209.96 183.482L248.728 20.9409Z" fill="black"/>
</g>
</g>
<g style="mix-blend-mode:multiply" opacity="0.3">
<g style="mix-blend-mode:multiply" opacity="0.3">
<path d="M242.807 0L166.521 320H89.0001C101.932 319.012 114.828 318.588 127.761 317.835L147.123 317.082L164.45 316.56C170.19 290.536 176.111 264.561 182.214 238.635L191.659 198.635L201.322 158.682C207.897 132.094 214.545 105.553 221.41 79.0588C224.898 65.8824 228.313 52.6118 231.909 39.4824C235.505 26.3529 239.029 13.0776 242.807 0Z" fill="black"/>
</g>
</g>
<g style="mix-blend-mode:multiply" opacity="0.3">
<g style="mix-blend-mode:multiply" opacity="0.3">
<path d="M153.807 0L77.5209 320H0C12.9323 319.012 25.8282 318.588 38.7604 317.835L58.1225 317.082L75.4503 316.56C81.1899 290.536 87.1111 264.561 93.214 238.635L102.659 198.635L112.322 158.682C118.897 132.094 125.545 105.553 132.41 79.0588C135.898 65.8824 139.312 52.6118 142.909 39.4824C146.505 26.3529 150.029 13.0776 153.807 0Z" fill="black"/>
</g>
</g>
<g style="mix-blend-mode:multiply" opacity="0.3">
<g style="mix-blend-mode:multiply" opacity="0.3">
<path d="M132.594 0C123.222 1.26588 113.849 2.07059 104.441 2.68235C99.7546 3.01176 95.0684 3.34118 90.3823 3.52941C86.4954 3.71765 82.6084 3.90588 78.7215 4C77.5227 9.50588 76.3239 14.9694 75.0888 20.4706L70.6207 39.6282C69.1676 45.9765 67.5329 52.3341 66.0072 58.6871C64.4815 65.04 62.8831 71.3929 61.2484 77.6988C59.6137 84.0047 58.0153 90.4047 56.2717 96.6635C54.528 102.922 52.8933 109.275 51.1133 115.534C47.5896 128.052 43.9206 140.428 39.8884 152.711L76.2876 0.0047033L132.594 0Z" fill="black"/>
</g>
</g>
<g style="mix-blend-mode:multiply" opacity="0.3">
<g style="mix-blend-mode:multiply" opacity="0.3">
<path d="M222.827 0C213.237 1.26588 203.647 2.07059 194.057 2.68235C189.261 3.05255 184.466 3.3349 179.671 3.52941C175.675 3.71765 171.716 3.90588 167.72 4.04235L163.978 20.8471L159.437 40.4235L154.715 59.9012C153.153 66.4471 151.518 72.8894 149.847 79.3365C148.176 85.7835 146.541 92.2777 144.761 98.7247C142.981 105.172 141.347 111.624 139.494 117.976C135.934 130.824 132.156 143.576 128.051 156.188L165.286 0H222.827Z" fill="black"/>
</g>
</g>
<g style="mix-blend-mode:multiply" opacity="0.3">
<g style="mix-blend-mode:multiply" opacity="0.3">
<path d="M281.24 317.783C292.9 317.27 304.525 316.842 316.186 316.518C313.389 305.647 310.664 294.776 307.94 283.859C304.815 271.482 301.764 259.057 298.785 246.584C292.719 221.741 286.87 196.753 281.058 171.812L272.521 134.254L264.239 96.6066C261.551 84.0419 258.826 71.4824 256.32 58.8706C253.74 46.2115 251.089 33.6421 248.727 20.9409L320 320H242.515C255.411 318.936 268.344 318.494 281.24 317.783Z" fill="black"/>
</g>
</g>
<defs>
<linearGradient id="paint0_linear" x1="76.9034" y1="3.52" x2="76.9034" y2="324.16" gradientUnits="userSpaceOnUse">
<stop stop-color="#00F3FF"/>
<stop offset="0.238" stop-color="#00EFFC"/>
<stop offset="0.44" stop-color="#00E5F4"/>
<stop offset="0.629" stop-color="#00D3E7"/>
<stop offset="0.81" stop-color="#00BAD4"/>
<stop offset="0.983" stop-color="#009BBC"/>
<stop offset="1" stop-color="#0098BA"/>
</linearGradient>
<linearGradient id="paint1_linear" x1="165.903" y1="3.52" x2="165.903" y2="324.16" gradientUnits="userSpaceOnUse">
<stop stop-color="#00F3FF"/>
<stop offset="0.238" stop-color="#00EFFC"/>
<stop offset="0.44" stop-color="#00E5F4"/>
<stop offset="0.629" stop-color="#00D3E7"/>
<stop offset="0.81" stop-color="#00BAD4"/>
<stop offset="0.983" stop-color="#009BBC"/>
<stop offset="1" stop-color="#0098BA"/>
</linearGradient>
<linearGradient id="paint2_linear" x1="291.061" y1="323.888" x2="161.187" y2="264.518" gradientUnits="userSpaceOnUse">
<stop stop-color="#3E6896"/>
<stop offset="0.247" stop-color="#355881"/>
<stop offset="0.75" stop-color="#1F324E"/>
<stop offset="1" stop-color="#131D32"/>
</linearGradient>
</defs>
</svg>
